:version 1.10
:name ASF
:units
  mass 1
  length 1
  angle deg
:documentation
  ASF file generated by Kaydara
:root
  axis xyz
  order  tx ty tz rx ry rz
  position 0 0 0
  orientation 0 0 0
:bonedata
  begin
    id 1
    name LeftUpLegDummy
    direction 1 -2.30186e-007 -8.31532e-007
    length 2.93387
    axis 0 0 0 xyz
  end
  begin
    id 2
    name LeftUpLeg
    direction -1.82929e-007 -1 -1.48925e-009
    length 17.3336
    axis -3.48766 0.00143442 -0.000521554 xyz
    dof rx ry rz
  end
  begin
    id 3
    name LeftLeg
    direction -1.82929e-007 -1 -5.23717e-011
    length 14.9995
    axis 3.68178 -0.00654042 -0.000282425 xyz
    dof rx ry rz
  end
  begin
    id 4
    name LeftFoot
    direction 8.31532e-007 -4.54534e-011 1
    length 6.74421
    axis 1.87234e-006 4.66016e-005 -5.96866e-006 xyz
    dof rx ry rz
  end
  begin
    id 5
    name LeftToes
    direction 0.00818058 -0.00485161 0.999955
    length 3.85048
    axis 1.06247e-005 4.65869e-005 -5.96999e-006 xyz
    dof rx ry rz
  end
  begin
    id 6
    name SpineDummy
    direction -5.8607e-008 0.943407 -0.331637
    length 5.93572
    axis 0 0 0 xyz
  end
  begin
    id 7
    name Spine
    direction -1.04988e-007 0.999988 0.00495137
    length 10.1015
    axis -0.001389 0.000121417 6.61666e-006 xyz
    dof rx ry rz
  end
  begin
    id 8
    name Spine1
    direction 0 0 0
    length 0
    axis -0.001389 0.00012144 6.56766e-006 xyz
    dof rx ry rz
  end
  begin
    id 9
    name RightShoulderDummy
    direction -0.98348 0.17941 -0.0240696
    length 3.59882
    axis -0.001389 0.00012144 6.56766e-006 xyz
  end
  begin
    id 10
    name RightShoulder
    direction -0.978693 0.204882 0.0135597
    length 2.70001
    axis 0.215806 0.000203631 -0.00679732 xyz
    dof rx ry rz
  end
  begin
    id 11
    name RightArm
    direction -1 3.85509e-006 8.31394e-007
    length 10.2459
    axis -23.2009 -0.134239 -0.964098 xyz
    dof rx ry rz
  end
  begin
    id 12
    name RightForeArm
    direction -1 3.85569e-006 8.3129e-007
    length 8.16799
    axis -9.92322 0.0658061 0.17887 xyz
    dof rx ry rz
  end
  begin
    id 13
    name RightHand
    direction -0.992843 -0.0414604 0.112003
    length 5.28593
    axis -0.00960638 0.00330669 -0.185225 xyz
    dof rx ry rz
  end
  begin
    id 14
    name LeftShoulder1Dummy
    direction 0.983523 0.179172 -0.0240748
    length 3.59866
    axis -0.001389 0.00012144 6.56766e-006 xyz
  end
  begin
    id 15
    name LeftShoulder1
    direction 0.978627 0.205195 0.0135605
    length 2.70019
    axis -0.001389 0.00012144 6.57583e-006 xyz
    dof rx ry rz
  end
  begin
    id 16
    name LeftArm
    direction 1 3.51895e-006 -8.60188e-007
    length 10.2459
    axis -23.1894 0.134785 0.967513 xyz
    dof rx ry rz
  end
  begin
    id 17
    name LeftForeArm
    direction 1 3.51921e-006 -7.32029e-007
    length 8.16799
    axis -9.91835 -0.0656957 -0.177789 xyz
    dof rx ry rz
  end
  begin
    id 18
    name LeftHand
    direction 0.992938 -0.0411636 0.11126
    length 5.32135
    axis -0.00960237 -0.00340661 0.185177 xyz
    dof rx ry rz
  end
  begin
    id 19
    name HEadDummy
    direction 1.01974e-006 0.999861 -0.016675
    length 2.99946
    axis -0.001389 0.00012144 6.56766e-006 xyz
  end
  begin
    id 20
    name HEad
    direction -0.0222689 0.980941 0.193023
    length 5.12695
    axis -0.001389 0.00012144 6.56766e-006 xyz
    dof rx ry rz
  end
  begin
    id 21
    name RightUpLegDummy
    direction -1 2.30186e-007 8.31532e-007
    length 2.93387
    axis 0 0 0 xyz
  end
  begin
    id 22
    name RightUpLeg
    direction -1.82966e-007 -1 1.56832e-007
    length 17.3336
    axis -3.4909 -0.000906625 0.00028951 xyz
    dof rx ry rz
  end
  begin
    id 23
    name RightLeg
    direction -1.82786e-007 -1 -1.80317e-007
    length 14.9995
    axis 3.68513 0.0193739 -0.131021 xyz
    dof rx ry rz
  end
  begin
    id 24
    name RightFoot
    direction 8.31721e-007 -4.63324e-011 1
    length 6.74421
    axis 4.81691e-005 -0.120479 -0.188785 xyz
    dof rx ry rz
  end
  begin
    id 25
    name RightToes
    direction 0.00124746 -0.014064 0.9999
    length 3.85082
    axis 0.000481921 0.542163 -0.142575 xyz
    dof rx ry rz
  end
:hierarchy
  begin
    root LeftUpLegDummy SpineDummy RightUpLegDummy
    LeftUpLegDummy LeftUpLeg
    LeftUpLeg LeftLeg
    LeftLeg LeftFoot
    LeftFoot LeftToes
    SpineDummy Spine
    Spine Spine1
    Spine1 RightShoulderDummy LeftShoulder1Dummy HEadDummy
    RightShoulderDummy RightShoulder
    RightShoulder RightArm
    RightArm RightForeArm
    RightForeArm RightHand
    LeftShoulder1Dummy LeftShoulder1
    LeftShoulder1 LeftArm
    LeftArm LeftForeArm
    LeftForeArm LeftHand
    HEadDummy HEad
    RightUpLegDummy RightUpLeg
    RightUpLeg RightLeg
    RightLeg RightFoot
    RightFoot RightToes
  end

:SAMPLES-PER-SECOND 30
:FULLY-SPECIFIED
:DEGREES
269
root  1.82068 34.5691 29.1641 5.57319 3.68659 -0.930471
LeftUpLeg  -10.125 10.4719 3.27042
LeftLeg  10.0272 3.06318 0.339315
LeftFoot  3.23063 -0.00134452 0.13204
LeftToes  -18.1289 2.60077e-006 -1.42232e-007
Spine  2.23935 1.60351 -3.27583
Spine1  4.1307 3.14975 -6.23536
RightShoulder  0.0297849 8.2669 4.31562
RightArm  -53.8763 0.965883 63.7741
RightForeArm  11.8619 53.9345 14.0442
RightHand  1.00207 -8.4168 -13.1749
LeftShoulder1  0.0680392 -2.62907 -8.70658
LeftArm  -8.50693 4.06655 -65.4548
LeftForeArm  19.6834 -53.5006 -13.819
LeftHand  0.213272 3.27246 7.07067
HEad  -5.83775 -19.5731 1.99668
RightUpLeg  -13.7297 -7.15137 -3.12729
RightLeg  13.9517 10.6649 1.92307
RightFoot  2.80759 -0.00354515 0.522083
RightToes  -36.7777 -0.193267 -0.296205
270
root  1.66367 34.5812 29.0957 5.56015 3.24215 -1.29936
LeftUpLeg  -10.0686 10.1672 3.87884
LeftLeg  9.74179 3.89385 0.411936
LeftFoot  3.64815 -0.0051618 0.191383
LeftToes  -18.4747 2.60077e-006 -1.42232e-007
Spine  2.36919 1.28124 -3.43917
Spine1  4.36466 2.44032 -6.48411
RightShoulder  0.0361245 8.45655 4.189
RightArm  -54.0663 2.30659 65.094
RightForeArm  11.4381 52.1042 13.1195
RightHand  0.945093 -8.08923 -12.9257
LeftShoulder1  0.0823724 -3.45966 -8.76289
LeftArm  -6.84444 -2.62318 -65.4568
LeftForeArm  20.6969 -59.6257 -17.5714
LeftHand  0.1871 3.04789 6.6389
HEad  -5.73368 -18.9534 2.13697
RightUpLeg  -14.2438 -8.53827 -2.43684
RightLeg  14.1429 6.86182 1.26506
RightFoot  3.22292 0.000308648 0.366497
RightToes  -35.4191 -0.182962 -0.287811
271
root  1.4994 34.5938 29.0371 5.60083 2.54645 -1.60288
LeftUpLeg  -9.84499 9.85415 4.45271
LeftLeg  9.16269 4.92379 0.470806
LeftFoot  4.16933 -0.0113638 0.286853
LeftToes  -18.9342 2.60077e-006 -1.42232e-007
Spine  2.47098 0.957858 -3.56079
Spine1  4.55527 1.73431 -6.67168
RightShoulder  0.0421587 8.71575 3.94882
RightArm  -54.096 3.95185 66.3636
RightForeArm  10.6802 50.1046 12.1957
RightHand  0.916553 -7.7843 -13.0296
LeftShoulder1  0.0924184 -4.40831 -9.00744
LeftArm  -5.78774 -10.9823 -65.8443
LeftForeArm  22.0288 -62.6967 -20.0584
LeftHand  0.153411 2.51984 6.57868
HEad  -5.60413 -17.8759 1.88693
RightUpLeg  -14.7925 -10.1274 -1.85298
RightLeg  13.8561 3.35883 0.60329
RightFoot  4.62154 0.00595256 0.229999
RightToes  -33.7135 -0.170311 -0.276929
272
root  1.32372 34.6038 28.994 5.63276 1.4987 -1.89725
LeftUpLeg  -9.52745 9.89568 5.05886
LeftLeg  8.64584 5.92391 0.512609
LeftFoot  4.64621 -0.0184248 0.394684
LeftToes  -19.5835 2.60077e-006 -1.42232e-007
Spine  2.54137 0.627807 -3.65627
Spine1  4.67619 1.03391 -6.84558
RightShoulder  0.0506717 9.03503 3.68019
RightArm  -53.6051 5.91278 67.441
RightForeArm  9.53077 47.7441 11.2032
RightHand  0.915242 -7.61637 -13.3035
LeftShoulder1  0.0994839 -5.67061 -9.07576
LeftArm  -5.86906 -19.75 -66.4542
LeftForeArm  22.245 -63.0984 -20.4255
LeftHand  0.115362 1.93672 6.42409
HEad  -5.50834 -16.1017 1.39901
RightUpLeg  -15.1284 -11.2165 -1.44239
RightLeg  12.6284 2.66082 0.419789
RightFoot  6.99783 0.0070386 0.262407
RightToes  -32.0187 -0.158066 -0.265748
273
root  1.13655 34.6038 28.9661 5.67231 0.174143 -2.0078
LeftUpLeg  -9.19189 10.2497 5.5091
LeftLeg  8.29494 6.83043 0.548871
LeftFoot  5.0006 -0.0253249 0.498962
LeftToes  -20.134 2.60077e-006 -1.42232e-007
Spine  2.61733 0.271575 -3.80615
Spine1  4.8283 0.294195 -7.13411
RightShoulder  0.057207 9.25951 3.1923
RightArm  -52.8156 8.28687 68.5442
RightForeArm  8.75614 45.0254 10.1708
RightHand  0.895162 -7.36426 -13.4607
LeftShoulder1  0.102993 -7.39049 -8.5961
LeftArm  -7.49238 -28.2043 -66.8063
LeftForeArm  19.1565 -61.3216 -18.8765
LeftHand  0.103044 1.98588 5.5507
HEad  -5.67386 -13.8401 0.811083
RightUpLeg  -15.5099 -12.3357 -1.2364
RightLeg  11.5293 5.28263 0.728513
RightFoot  9.65667 -0.0364969 0.809555
RightToes  -33.0442 -0.165435 -0.272557
